<svg version="1.1" id="Layer_1" xmlns="http://www.w3.org/2000/svg" x="0" y="0" viewBox="0 0 140 140" xml:space="preserve"><style>.st1{fill:#fff}.st2{fill:#4dc4b0}</style><path fill="#a9ffd8" d="M28.4 72.2L2.2 61.3 70 28.4l67.8 32.9-26.2 10.9"/><path class="st1" d="M112.4 74.2l-1.7-4 21.8-9.1L70 30.9 7.5 61.1l21.8 9.1-1.7 4L1.3 63.3C.5 63 0 62.2 0 61.3c0-.9.5-1.7 1.2-2L69 26.5c.6-.3 1.3-.3 1.9 0l67.8 32.8c.8.4 1.3 1.2 1.2 2 0 .9-.6 1.6-1.3 2l-26.2 10.9z"/><path class="st2" d="M28.4 98.4V72.2C28.4 65 47 59.1 70 59.1s41.6 5.9 41.6 13.1v26.2"/><ellipse cx="70" cy="98.4" rx="41.6" ry="13.1" fill="#002040"/><path class="st1" d="M70 113.7c-21.2 0-43.7-5.4-43.7-15.3S48.8 83.1 70 83.1s43.7 5.4 43.7 15.3-22.5 15.3-43.7 15.3zm0-26.2c-24.4 0-39.4 6.4-39.4 10.9 0 4.6 15 10.9 39.4 10.9s39.4-6.4 39.4-10.9-15-10.9-39.4-10.9z"/><path class="st1" d="M113.7 98.4h-4.4V72.2c0-4.6-15-10.9-39.4-10.9s-39.4 6.4-39.4 10.9v26.2h-4.4V72.2c0-9.9 22.5-15.3 43.7-15.3s43.7 5.4 43.7 15.3v26.2zM8.7 65.6h4.4v32.8H8.7z"/><circle class="st2" cx="10.9" cy="105" r="6.6"/><path class="st1" d="M10.9 113.7c-4.8 0-8.7-3.9-8.7-8.7s3.9-8.7 8.7-8.7 8.7 3.9 8.7 8.7-3.8 8.7-8.7 8.7zm0-13.1c-2.4 0-4.4 2-4.4 4.4 0 2.4 2 4.4 4.4 4.4s4.4-2 4.4-4.4c0-2.4-1.9-4.4-4.4-4.4zM59.1 70h4.4v4.4h-4.4zM67.8 70h4.4v4.4h-4.4zM76.6 70H81v4.4h-4.4z"/></svg>