<svg version="1.1" id="Layer_1" xmlns="http://www.w3.org/2000/svg" x="0" y="0" viewBox="0 0 140 140" xml:space="preserve"><style>.st1{fill:#002040}</style><path d="M83.4 53.2c0-4.7 4-8.2 8.6-8.6l-8.6-17.3c-3.6 2.9-8.1 3.3-11.5 0-3.4-3.3-3-7.9 0-11.5L54.6 7.2c-.5 4.6-3.9 8.6-8.6 8.6s-8.2-4-8.6-8.6l-17.3 8.6c2.9 3.6 3.3 8.1 0 11.5-3.3 3.4-7.9 3-11.5 0C5.4 32.2 1.2 38.7 0 44.6c4.6.5 8.6 3.9 8.6 8.6s-4 8.2-8.6 8.6l8.6 17.3c3.6-2.9 8.1-3.3 11.5 0 3.4 3.3 3 7.9 0 11.5l17.3 8.6c.5-4.6 3.9-8.6 8.6-8.6s8.2 4 8.6 8.6l17.3-8.6c-2.9-3.6-3.3-8.1 0-11.5 3.4-3.4 7.9-3 11.5 0L92 61.8c-4.6-.4-8.6-3.9-8.6-8.6z" fill="#4dc4b0"/><circle class="st1" cx="46" cy="53.2" r="11.5"/><path d="M46 81.9c-15.9 0-28.8-12.9-28.8-28.8S30.1 24.3 46 24.3s28.8 12.9 28.8 28.8S61.9 81.9 46 81.9zm0-51.7c-12.7 0-23 10.3-23 23s10.3 23 23 23 23-10.3 23-23-10.3-23-23-23z" fill="#fff"/><g><path d="M138.4 108.8a6.7 6.7 0 010-13.4c.5 0 1.1.1 1.6.2-.8-3.8-2.3-7.4-4.4-10.6-.3.4-.6.8-1 1.2-2.6 2.6-6.9 2.6-9.5 0-2.6-2.6-2.6-6.9 0-9.5.4-.4.8-.7 1.2-1-3.2-2.1-6.7-3.6-10.6-4.4.1.5.2 1 .2 1.6a6.7 6.7 0 01-13.4 0c0-.5.1-1.1.2-1.6-3.8.8-7.4 2.3-10.6 4.4.4.3.8.6 1.2 1 2.6 2.6 2.6 6.9 0 9.5-2.6 2.6-6.9 2.6-9.5 0-.4-.4-.7-.8-1-1.2-2.1 3.2-3.6 6.7-4.4 10.6.5-.1 1-.2 1.6-.2a6.7 6.7 0 010 13.4c-.5 0-1.1-.1-1.6-.2.8 3.8 2.3 7.4 4.4 10.6.3-.4.6-.8 1-1.2 2.6-2.6 7.1-2.8 9.7-.2 2.6 2.6 2.5 7.1-.2 9.7-.4.4-.8.7-1.2 1 3.2 2.1 6.7 3.6 10.6 4.4-.1-.5-.2-1-.2-1.6a6.7 6.7 0 0113.4 0c0 .5-.1 1.1-.2 1.6 3.8-.8 7.4-2.3 10.6-4.4-.4-.3-.8-.6-1.2-1-2.6-2.6-2.6-6.9 0-9.5 2.6-2.6 6.9-2.6 9.5 0 .4.4.7.8 1 1.2 2.1-3.2 3.6-6.7 4.4-10.6-.5.1-1 .2-1.6.2z" fill="#a9ffd8"/><path class="st1" d="M109.3 116.4c-7.9 0-14.4-6.4-14.4-14.4s6.4-14.4 14.4-14.4 14.4 6.4 14.4 14.4-6.5 14.4-14.4 14.4zm0-23c-4.8 0-8.6 3.9-8.6 8.6 0 4.8 3.9 8.6 8.6 8.6 4.8 0 8.6-3.9 8.6-8.6 0-4.7-3.9-8.6-8.6-8.6z"/></g></svg>